<svg xmlns="http://www.w3.org/2000/svg" width="32" height="32" viewBox="0 0 32 32" aria-hidden="true" focusable="false">
  <path d="M27.9758883 13.3242188a.99471541.99471541 0 0 1-.0443868 0H4.0685064c-.01477591.0003295-.02957502.0003308-.04439474 0h-.30926791c-.91472162 0-1.65625.7415283-1.65625 1.65625v4.9804687c0 .1466906.09625895.2708987.22905712.3129047a.99259548.99259548 0 0 1 .03423927.0088172c.02095706.0041998.04263553.0064031.06482861.0064031H29.6132812c.0221931 0 .0438716-.0022033.0648287-.0064031a.99257392.99257392 0 0 1 .0342392-.0088172c.1327982-.042006.2290571-.1662141.2290571-.3129047v-4.9804687c0-.9147217-.7415283-1.65625-1.65625-1.65625h-.3092678zm-1.5666975-2l-1.6503206-3.68277207c-.2909841-.77671881-1.0338308-1.29097072-1.8645733-1.28989023H9.10439734c-.8294367-.00108049-1.57228344.51317142-1.8872935 1.34833177L5.59141471 11.3242188H26.4091908zm-23.01575356.0139323l1.974808-4.39834783c.58387858-1.55853681 2.07444747-2.59041573 3.73745788-2.58824677H22.8929911c1.6643162-.00216896 3.1548851 1.02970996 3.7147377 2.52980523l1.9990979 4.45681237c1.8686387.1628808 3.3345795 1.7313933 3.3345795 3.6422947v4.9804687c0 .7904129-.3938923 1.4888274-.9960937 1.90966V23.28125c0 1.6525395-1.339648 2.9921875-2.9921875 2.9921875s-2.9921875-1.339648-2.9921875-2.9921875v-.9921875H7.0390625v.9921875c0 1.6525395-1.33964798 2.9921875-2.9921875 2.9921875s-2.9921875-1.339648-2.9921875-2.9921875v-1.4106525c-.60220139-.4208326-.99609375-1.1192471-.99609375-1.90966v-4.9804687c0-1.9109914 1.46607888-3.4795617 3.33484349-3.6423177zM3.0546875 22.2890625v.9921875c0 .54797.44421747.9921875.9921875.9921875s.9921875-.4442175.9921875-.9921875v-.9921875h-1.984375zm23.90625 0v.9921875c0 .54797.4442175.9921875.9921875.9921875.54797 0 .9921875-.4442175.9921875-.9921875v-.9921875h-1.984375zM6.25 17.5c-.69035594 0-1.25-.5596441-1.25-1.25S5.55964406 15 6.25 15s1.25.5596441 1.25 1.25-.55964406 1.25-1.25 1.25zm19 0c-.6903559 0-1.25-.5596441-1.25-1.25S24.5596441 15 25.25 15s1.25.5596441 1.25 1.25-.5596441 1.25-1.25 1.25z" />
</svg>