<svg xmlns="http://www.w3.org/2000/svg" width="32" height="32" viewBox="0 0 32 32" aria-hidden="true" focusable="false">
  <path d="M11.148 10.653c-2.382 0-4.313-1.915-4.313-4.278s1.931-4.278 4.313-4.278 4.313 1.915 4.313 4.278-1.931 4.278-4.313 4.278zm0-1.556c1.516 0 2.744-1.219 2.744-2.722s-1.229-2.722-2.744-2.722-2.744 1.219-2.744 2.722 1.229 2.722 2.744 2.722zm5.293 12.056h-1.055l-.811 8.05c-.04.398-.377.7-.78.7H8.502c-.403 0-.74-.303-.78-.7l-.811-8.05H5.856c-.433 0-.784-.348-.784-.778v-3.5c0-3.329 2.721-6.028 6.077-6.028s6.077 2.699 6.077 6.028v3.5c-.001.43-.352.778-.785.778zm-3.356 7.194l.811-8.05c.04-.398.377-.7.78-.7h.98v-2.722c0-2.47-2.019-4.472-4.509-4.472s-4.509 2.002-4.509 4.472v2.722h.98c.403 0 .74.303.78.7l.811 8.05h3.876zm8.649-10.694c-1.895 0-3.43-1.523-3.43-3.403s1.536-3.403 3.43-3.403 3.43 1.523 3.43 3.403-1.536 3.403-3.43 3.403zm0-1.556c1.028 0 1.862-.827 1.862-1.847s-.834-1.847-1.862-1.847-1.862.827-1.862 1.847.833 1.847 1.862 1.847zm2.646 7h.98V23c-.001-1.159-.564-2.247-1.513-2.923-.949-.676-2.169-.857-3.276-.486-.41.137-.855-.081-.994-.488-.138-.407.082-.848.492-.986 1.586-.531 3.332-.272 4.692.696 1.36.968 2.166 2.526 2.167 4.186v.875c0 .43-.351.778-.784.778h-1.1l-.773 4.6c-.063.375-.39.65-.773.65H19.97c-.383 0-.71-.275-.773-.65l-.442-2.632c-.071-.424.217-.824.645-.895.427-.071.831.216.902.639l.333 1.982h2.2l.773-4.6c.062-.374.389-.649.772-.649z" />
</svg>