<svg xmlns="http://www.w3.org/2000/svg" width="32" height="32" viewBox="0 0 32 32" aria-hidden="true" focusable="false">
  <path d="M14.6811594 1c2.5779588 0 4.6811594 2.05966895 4.6811594 4.61797753 0 2.2785367-1.6683489 4.16153104-3.8545599 4.54612307L15.507 14h6.6704194c.4193526 0 .7654129.3255647.8161715.7463633L23 14.8534137c0 .4713273-.3682819.8534136-.8225806.8534136L15.507 15.706l.0002464 3.1254607c0 .5312874.4231522.9811005.9801495 1.0387143l.1212998.0062295 5.1152813-.0002042c.1300003-.0892747.2858697-.1412605.4534424-.1412605.172204 0 .332049.0548991.4641617.1487479 2.3915338.1235181 4.3174305 2.0217978 4.4260491 4.3986897l.0048336.2120046v4.8202247h1.1014492c.4562353 0 .826087.3772882.826087.8426967 0 .4296078-.3151399.7841308-.7224644.8361308L28.173913 31h-1.9275362c-.4211402 0-.7686755-.3214763-.8196506-.7369906l-.0064363-.105706V24.494382c0-1.4112984-1.034124-2.5995411-2.4194129-2.8732743L23 22.5c0 4.7023905-3.8129225 8.5-8.5 8.5C9.81292247 31 6 27.2023905 6 22.5c0-4.4847282 3.46810992-8.1464972 7.8550498-8.4758773l.0005032-3.8598475C11.6688542 9.78007874 10 7.8968592 10 5.61797753 10 3.05966895 12.1032006 1 14.6811594 1zm-.8254686 14.7364117C10.366067 16.0585144 7.64516129 18.9706927 7.64516129 22.5c0 3.7437956 3.06167301 6.7931727 6.85483871 6.7931727 3.7931657 0 6.8548387-3.0493771 6.8548387-6.7931727L21.354 21.561l-4.7453043.0007978c-1.4573578 0-2.6613808-1.1262434-2.7485686-2.5632017l-.0050546-.1671354zm.8254686-13.05101844c-1.6802366 0-3.0289855 1.32083271-3.0289855 2.93258427 0 1.61175155 1.3487489 2.93258427 3.0289855 2.93258427 1.6802367 0 3.0289855-1.32083272 3.0289855-2.93258427 0-1.61175156-1.3487488-2.93258427-3.0289855-2.93258427z" />
</svg>