<svg xmlns="http://www.w3.org/2000/svg" width="32" height="32" viewBox="0 0 32 32" aria-hidden="true" focusable="false">
<path d="M22 14.8h-4c-.4 0-.8-.3-.8-.8s.3-.8.8-.8h4c.4 0 .8.3.8.8s-.4.8-.8.8zM26 18.8h-8c-.4 0-.8-.3-.8-.8s.3-.8.8-.8h8c.4 0 .8.3.8.8s-.4.8-.8.8zM26 22.8h-8c-.4 0-.8-.3-.8-.8s.3-.8.8-.8h8c.4 0 .8.3.8.8s-.4.8-.8.8zM26 14.8h-1c-.4 0-.8-.3-.8-.8s.3-.8.8-.8h1c.4 0 .8.3.8.8s-.4.8-.8.8zM9.4 19c-2.1 0-3.9-1.7-3.9-3.9s1.7-3.9 3.9-3.9 3.9 1.7 3.9 3.9S11.5 19 9.4 19zm0-6.2c-1.3 0-2.4 1.1-2.4 2.4s1.1 2.4 2.4 2.4 2.4-1.1 2.4-2.4-1.1-2.4-2.4-2.4zM14 23.8c-.3 0-.6-.2-.7-.5-.6-1.5-2.1-2.5-3.8-2.5s-3.2 1-3.8 2.5c-.2.4-.6.6-1 .4s-.6-.6-.4-1c.8-2.1 2.9-3.5 5.2-3.5s4.4 1.4 5.2 3.5c.2.4 0 .8-.4 1-.1 0-.2.1-.3.1z"/>
<path d="M28.4 5H21V2.3l-.4-.2c-.1-.1-.2-.1-.4-.1h-8.3c-.2 0-.3 0-.5.1l-.4.2V5H3.6C2.2 5 1 6.1 1 7.4v19.2C1 27.9 2.2 29 3.6 29h24.8c1.4 0 2.6-1.1 2.6-2.4V7.4C31 6.1 29.8 5 28.4 5zM12.5 3.5h7v4h-7v-4zm17 23.1c0 .4-.4.9-1.1.9H3.6c-.7 0-1.1-.5-1.1-.9V7.4c0-.4.4-.9 1.1-.9H11v2.2l.4.2c.1.1.2.1.4.1h8.3c.2 0 .3 0 .5-.1l.4-.2V6.5h7.4c.7 0 1.1.5 1.1.9v19.2z"/>
</svg>