<svg xmlns="http://www.w3.org/2000/svg" width="32" height="32" viewBox="0 0 32 32" aria-hidden="true" focusable="false">
  <path d="M24.826087 12.2c2.5661295 0 4.6521739-2.05624374 4.6521739-4.6 0-2.54375626-2.0860444-4.6-4.6521739-4.6-2.5661296 0-4.652174 2.05624374-4.652174 4.6 0 2.54375626 2.0860444 4.6 4.652174 4.6zm0-2c-1.4679504 0-2.652174-1.16730606-2.652174-2.6S23.3581366 5 24.826087 5c1.4679503 0 2.6521739 1.16730606 2.6521739 2.6s-1.1842236 2.6-2.6521739 2.6z"/>
  <path d="M29.3913043 21.2c.5522848 0 1-.4477153 1-1v-2.7c0-2.0867117-1.1945262-3.9918845-3.0815094-4.92189765-1.8820558-.92758467-4.1328287-.72753192-5.8173102.5177812-.4441012.32831771-.5379623.95448705-.2096446 1.39858825.3283177.4441013.954487.5379624 1.3985882.2096447 1.0822014-.80005604 2.5330156-.92900703 3.7442053-.3320636 1.2062622.594515 1.9656707 1.8057102 1.9656707 3.1279471v1.7h-.8260869c-.5036439 0-.9286947.3745534-.9920551.8741959L25.770977 26.4h-1.8900756l-.1177578-.9261342c-.069662-.5478738-.5702736-.935541-1.1181474-.865879s-.935541.5702737-.8658789 1.1181474l.2288695 1.8C22.0714976 28.0256299 22.4964829 28.4 23 28.4h3.6521739c.5036439 0 .9286947-.3745534.9920551-.8741959L28.4464143 21.2h.94489zM6.56521739 12.2c2.56612954 0 4.65217391-2.05624374 4.65217391-4.6 0-2.54375626-2.08604437-4.6-4.65217391-4.6S1.91304348 5.05624374 1.91304348 7.6c0 2.54375626 2.08604437 4.6 4.65217391 4.6zm0-2c-1.46795037 0-2.65217391-1.16730606-2.65217391-2.6S5.09726702 5 6.56521739 5 9.2173913 6.16730606 9.2173913 7.6s-1.18422354 2.6-2.65217391 2.6z"/>
  <path d="M5.62032736 26.4l-.8021853-6.3258041C4.7547816 19.5745534 4.32973085 19.2 3.82608696 19.2H3v-1.7c0-1.3222369.75940852-2.5334321 1.96567079-3.1279471 1.21118963-.59694343 2.66200388-.46799244 3.74420523.3320636.44410125.3283177 1.07027055.2344566 1.39858826-.2096447.32831771-.4441012.23445661-1.07027054-.20964465-1.39858825-1.68448151-1.24531312-3.93525436-1.44536587-5.8173102-.5177812C2.19452622 13.5081155 1 15.4132883 1 17.5v2.7c0 .5522847.44771525 1 1 1h.94489003l.8021853 6.3258041c.06336046.4996425.48841121.8741959.9920551.8741959h3.65217392c.50351714 0 .92850243-.3743701.99201318-.8738658l.22886957-1.8c.06966201-.5478737-.3180052-1.0484854-.86587895-1.1181474-.54787375-.069662-1.0484854.3180052-1.11814742.865879L7.51040299 26.4H5.62032736zM15.6956522 15.8c2.0618695 0 3.7391304-1.6533 3.7391304-3.7 0-2.04669999-1.6772609-3.7-3.7391304-3.7-2.0618696 0-3.73913046 1.65330001-3.73913046 3.7 0 2.0467 1.67726086 3.7 3.73913046 3.7zm0-2c-.9636904 0-1.7391305-.76436234-1.7391305-1.7 0-.93563766.7754401-1.7 1.7391305-1.7s1.7391304.76436234 1.7391304 1.7c0 .93563766-.77544 1.7-1.7391304 1.7z"/>
  <path d="M12.8835602 27.5667158c.0813492.4811221.498054.8332842.986005.8332842h1.826087c.5522847 0 1-.4477153 1-1s-.4477153-1-1-1h-.9809755l-.77215-4.5667158C13.8611776 21.3521621 13.4444727 21 12.9565217 21h-.8246579c.0538999-1.8837048 1.6257573-3.4 3.5637884-3.4.5522847 0 1-.4477153 1-1s-.4477153-1-1-1c-3.0703896 0-5.56521742 2.4591875-5.56521742 5.5v.9c0 .5522847.44771525 1 1 1h.98097542l.77215 4.5667158z"/>
  <path d="M19.2594405 21h-.8246579c-.487951 0-.9046558.3521621-.986005.8332842L16.6766276 26.4h-.9809754c-.5522848 0-1 .4477153-1 1s.4477152 1 1 1h1.8260869c.487951 0 .9046559-.3521621.986005-.8332842L19.2798941 23h.9809755c.5522847 0 1-.4477153 1-1v-.9c0-3.0408125-2.4948279-5.5-5.5652174-5.5-.5522848 0-1 .4477153-1 1s.4477152 1 1 1c1.9380311 0 3.5098885 1.5162952 3.5637883 3.4z"/>
</svg>